<?xml version="1.0" encoding="UTF-8"?>
<!DOCTYPE svg PUBLIC "-//W3C//DTD SVG 1.1//EN" "http://www.w3.org/Graphics/SVG/1.1/DTD/svg11.dtd">
<svg xmlns="http://www.w3.org/2000/svg" version="1.1" width="100px" height="100px" style="shape-rendering:geometricPrecision; text-rendering:geometricPrecision; image-rendering:optimizeQuality; fill-rule:evenodd; clip-rule:evenodd" xmlns:xlink="http://www.w3.org/1999/xlink">
<g><path style="opacity:0.865" fill="#fefffe" d="M 16.5,11.5 C 20.5138,11.3345 24.5138,11.5012 28.5,12C 29.9308,12.4652 31.0975,13.2986 32,14.5C 33.27,22.3967 33.9367,30.3967 34,38.5C 48.25,29.29 62.75,20.4567 77.5,12C 80.7416,11.4136 83.5749,12.2469 86,14.5C 87.6451,37.0784 87.9784,59.745 87,82.5C 85.5847,85.7054 83.0847,87.3721 79.5,87.5C 63.9584,79.1453 48.7918,70.1453 34,60.5C 33.9367,68.6033 33.27,76.6033 32,84.5C 29.3468,86.9407 26.1801,87.9407 22.5,87.5C 18.8199,87.9407 15.6532,86.9407 13,84.5C 11.3549,61.9216 11.0216,39.255 12,16.5C 13.025,14.313 14.525,12.6464 16.5,11.5 Z M 19.5,18.5 C 21.7925,18.2436 23.9592,18.5769 26,19.5C 26.6667,39.5 26.6667,59.5 26,79.5C 23.6667,80.8333 21.3333,80.8333 19,79.5C 18.1795,59.0936 18.3462,38.7603 19.5,18.5 Z M 78.5,19.5 C 79.8319,29.1436 80.4986,39.1436 80.5,49.5C 80.1667,59.5 79.8333,69.5 79.5,79.5C 64.5,70.3333 49.5,61.1667 34.5,52C 33.1667,50.3333 33.1667,48.6667 34.5,47C 49.399,38.0587 64.0657,28.892 78.5,19.5 Z"/></g>
</svg>
