<?xml version="1.0" encoding="UTF-8"?>
<!DOCTYPE svg PUBLIC "-//W3C//DTD SVG 1.1//EN" "http://www.w3.org/Graphics/SVG/1.1/DTD/svg11.dtd">
<svg xmlns="http://www.w3.org/2000/svg" version="1.1" width="100px" height="100px" style="shape-rendering:geometricPrecision; text-rendering:geometricPrecision; image-rendering:optimizeQuality; fill-rule:evenodd; clip-rule:evenodd" xmlns:xlink="http://www.w3.org/1999/xlink">
<g><path style="opacity:0.866" fill="#fefffe" d="M 17.5,11.5 C 21.1055,11.7986 24.4388,12.9653 27.5,15C 39.9158,22.9584 52.4158,30.7918 65,38.5C 65.0633,30.3967 65.73,22.3967 67,14.5C 69.6532,12.0593 72.8199,11.0593 76.5,11.5C 80.1801,11.0593 83.3468,12.0593 86,14.5C 87.6451,37.0784 87.9784,59.745 87,82.5C 86.5348,83.9308 85.7014,85.0975 84.5,86C 79.9534,87.5452 75.2867,87.8785 70.5,87C 69.0692,86.5348 67.9025,85.7014 67,84.5C 65.73,76.6033 65.0633,68.6033 65,60.5C 50.75,69.71 36.25,78.5433 21.5,87C 18.2584,87.5864 15.4251,86.7531 13,84.5C 11.3549,61.9216 11.0216,39.255 12,16.5C 13.1065,13.887 14.9399,12.2203 17.5,11.5 Z M 73.5,18.5 C 75.7925,18.2436 77.9592,18.5769 80,19.5C 80.6667,39.5 80.6667,59.5 80,79.5C 77.6667,80.8333 75.3333,80.8333 73,79.5C 72.1795,59.0936 72.3462,38.7603 73.5,18.5 Z M 18.5,19.5 C 33.5957,28.0792 48.5957,36.9126 63.5,46C 66.1667,48.3333 66.1667,50.6667 63.5,53C 48.7021,61.6345 34.0355,70.4679 19.5,79.5C 18.5004,59.5111 18.167,39.5111 18.5,19.5 Z"/></g>
</svg>
