<?xml version="1.0" encoding="UTF-8"?>
<!DOCTYPE svg PUBLIC "-//W3C//DTD SVG 1.1//EN" "http://www.w3.org/Graphics/SVG/1.1/DTD/svg11.dtd">
<svg xmlns="http://www.w3.org/2000/svg" version="1.1" width="100px" height="100px" style="shape-rendering:geometricPrecision; text-rendering:geometricPrecision; image-rendering:optimizeQuality; fill-rule:evenodd; clip-rule:evenodd" xmlns:xlink="http://www.w3.org/1999/xlink">
<g><path style="opacity:0.878" fill="#fefffe" d="M 17.5,9.5 C 23.5092,9.33385 29.5092,9.50051 35.5,10C 38,11.1667 39.8333,13 41,15.5C 41.6667,38.1667 41.6667,60.8333 41,83.5C 39.8333,86 38,87.8333 35.5,89C 29.5,89.6667 23.5,89.6667 17.5,89C 14.5719,87.7402 12.7386,85.5735 12,82.5C 11.3333,60.5 11.3333,38.5 12,16.5C 12.9383,13.4025 14.7716,11.0691 17.5,9.5 Z M 20.5,16.5 C 24.5138,16.3345 28.5138,16.5012 32.5,17C 33,17.5 33.5,18 34,18.5C 34.6667,39.1667 34.6667,59.8333 34,80.5C 33.5,81 33,81.5 32.5,82C 28.5,82.6667 24.5,82.6667 20.5,82C 20,81.5 19.5,81 19,80.5C 18.3333,59.8333 18.3333,39.1667 19,18.5C 19.7172,17.9558 20.2172,17.2891 20.5,16.5 Z"/></g>
<g><path style="opacity:0.878" fill="#fefffe" d="M 63.5,9.5 C 69.5092,9.33385 75.5092,9.50051 81.5,10C 84.4281,11.2598 86.2614,13.4265 87,16.5C 87.6667,38.5 87.6667,60.5 87,82.5C 86.2614,85.5735 84.4281,87.7402 81.5,89C 75.5,89.6667 69.5,89.6667 63.5,89C 61,87.8333 59.1667,86 58,83.5C 57.3333,60.8333 57.3333,38.1667 58,15.5C 59.3597,12.9774 61.193,10.9774 63.5,9.5 Z M 66.5,16.5 C 70.5138,16.3345 74.5138,16.5012 78.5,17C 79,17.5 79.5,18 80,18.5C 80.6667,39.1667 80.6667,59.8333 80,80.5C 79.5,81 79,81.5 78.5,82C 74.5,82.6667 70.5,82.6667 66.5,82C 66,81.5 65.5,81 65,80.5C 64.3333,59.8333 64.3333,39.1667 65,18.5C 65.7172,17.9558 66.2172,17.2891 66.5,16.5 Z"/></g>
</svg>
