<?xml version="1.0" encoding="UTF-8"?>
<!DOCTYPE svg PUBLIC "-//W3C//DTD SVG 1.1//EN" "http://www.w3.org/Graphics/SVG/1.1/DTD/svg11.dtd">
<svg xmlns="http://www.w3.org/2000/svg" version="1.1" width="100px" height="100px" style="shape-rendering:geometricPrecision; text-rendering:geometricPrecision; image-rendering:optimizeQuality; fill-rule:evenodd; clip-rule:evenodd" xmlns:xlink="http://www.w3.org/1999/xlink">
<g><path style="opacity:0.848" fill="#fefffe" d="M 20.5,7.5 C 22.5273,7.33788 24.5273,7.50454 26.5,8C 47.3279,19.2464 67.9946,30.7464 88.5,42.5C 93.051,50.0214 91.3844,55.8548 83.5,60C 67.6724,68.4129 52.0058,77.0796 36.5,86C 32.3768,88.3967 28.0435,90.2301 23.5,91.5C 18.7582,91.2203 15.5915,88.887 14,84.5C 13.3333,61.1667 13.3333,37.8333 14,14.5C 15.0183,10.9853 17.1849,8.65196 20.5,7.5 Z M 22.5,14.5 C 42.6056,25.0543 62.6056,35.8876 82.5,47C 83.5536,48.3876 83.7203,49.8876 83,51.5C 63.0518,63.0526 42.8852,73.8859 22.5,84C 22,83.5 21.5,83 21,82.5C 20.3333,60.5 20.3333,38.5 21,16.5C 21.7172,15.9558 22.2172,15.2891 22.5,14.5 Z"/></g>
</svg>
