<?xml version="1.0" encoding="UTF-8"?>
<!DOCTYPE svg PUBLIC "-//W3C//DTD SVG 1.1//EN" "http://www.w3.org/Graphics/SVG/1.1/DTD/svg11.dtd">
<svg xmlns="http://www.w3.org/2000/svg" version="1.1" width="100px" height="100px" style="shape-rendering:geometricPrecision; text-rendering:geometricPrecision; image-rendering:optimizeQuality; fill-rule:evenodd; clip-rule:evenodd" xmlns:xlink="http://www.w3.org/1999/xlink">
<g><path style="opacity:0.836" fill="#fefffe" d="M 8.5,7.5 C 10.1992,7.33982 11.8659,7.50649 13.5,8C 39.3333,33.8333 65.1667,59.6667 91,85.5C 92.5,90.6667 90.6667,92.5 85.5,91C 78,83.5 70.5,76 63,68.5C 62.6667,73.5 62.3333,78.5 62,83.5C 58.7846,88.1399 54.9512,88.6399 50.5,85C 45.1667,80 39.8333,75 34.5,70C 28.2752,68.7493 21.9418,68.0827 15.5,68C 13.714,67.2155 12.214,66.0488 11,64.5C 9.38865,55.2679 9.05532,45.9346 10,36.5C 13.2917,31.2121 18.125,29.0455 24.5,30C 19,24.5 13.5,19 8,13.5C 7.32239,11.4024 7.48905,9.40239 8.5,7.5 Z M 18.5,37.5 C 23.1785,37.3342 27.8452,37.5008 32.5,38C 40,45.5 47.5,53 55,60.5C 55.6667,66.5 55.6667,72.5 55,78.5C 48.8333,73 42.6667,67.5 36.5,62C 30.5,61.6667 24.5,61.3333 18.5,61C 18,60.5 17.5,60 17,59.5C 16.3333,52.8333 16.3333,46.1667 17,39.5C 17.7172,38.9558 18.2172,38.2891 18.5,37.5 Z"/></g>
<g><path style="opacity:0.834" fill="#fefffe" d="M 53.5,11.5 C 57.3547,10.8454 60.1881,12.1788 62,15.5C 62.6667,26.8333 62.6667,38.1667 62,49.5C 60,47.5 58,45.5 56,43.5C 55.6667,35.8333 55.3333,28.1667 55,20.5C 51.0188,23.6468 47.1855,26.9801 43.5,30.5C 41.5,29.1667 39.8333,27.5 38.5,25.5C 43.5203,20.8116 48.5203,16.1449 53.5,11.5 Z"/></g>
<g><path style="opacity:0.832" fill="#fefffe" d="M 77.5,24.5 C 80.0444,24.1043 82.2111,24.771 84,26.5C 91.2943,41.5634 91.2943,56.5634 84,71.5C 82.1667,69.6667 80.3333,67.8333 78.5,66C 84.1406,52.9019 83.4739,40.0686 76.5,27.5C 76.685,26.4163 77.0183,25.4163 77.5,24.5 Z"/></g>
<g><path style="opacity:0.813" fill="#fefffe" d="M 68.5,34.5 C 73.1299,34.3525 75.6299,36.6858 76,41.5C 77.9521,48.4474 77.2854,55.1141 74,61.5C 72.1667,59.6667 70.3333,57.8333 68.5,56C 69.3483,48.7561 69.3483,41.5894 68.5,34.5 Z"/></g>
</svg>
