<?xml version="1.0" encoding="UTF-8"?>
<!DOCTYPE svg PUBLIC "-//W3C//DTD SVG 1.1//EN" "http://www.w3.org/Graphics/SVG/1.1/DTD/svg11.dtd">
<svg xmlns="http://www.w3.org/2000/svg" version="1.1" width="100px" height="100px" style="shape-rendering:geometricPrecision; text-rendering:geometricPrecision; image-rendering:optimizeQuality; fill-rule:evenodd; clip-rule:evenodd" xmlns:xlink="http://www.w3.org/1999/xlink">
<g><path style="opacity:0.862" fill="#fefffe" d="M 54.5,11.5 C 57.9612,11.1459 60.4612,12.4792 62,15.5C 62.6667,38.1667 62.6667,60.8333 62,83.5C 58.867,88.2314 55.0337,88.7314 50.5,85C 44.5,79.6667 38.5,74.3333 32.5,69C 26.0582,68.9173 19.7248,68.2507 13.5,67C 11.9512,65.786 10.7845,64.286 10,62.5C 9.33333,53.8333 9.33333,45.1667 10,36.5C 10.7845,34.714 11.9512,33.214 13.5,32C 19.7248,30.7493 26.0582,30.0827 32.5,30C 40.0241,23.9688 47.3574,17.8021 54.5,11.5 Z M 54.5,20.5 C 55.6623,39.6623 55.829,58.9956 55,78.5C 48.8333,73 42.6667,67.5 36.5,62C 30.5,61.6667 24.5,61.3333 18.5,61C 18,60.5 17.5,60 17,59.5C 16.3333,52.8333 16.3333,46.1667 17,39.5C 17.5,39 18,38.5 18.5,38C 24.5,37.6667 30.5,37.3333 36.5,37C 42.696,31.634 48.696,26.134 54.5,20.5 Z"/></g>
<g><path style="opacity:0.831" fill="#fefffe" d="M 79.5,23.5 C 83.6667,25.4667 86.1667,28.8 87,33.5C 90.9717,46.8968 89.9717,59.8968 84,72.5C 80.8774,76.5303 78.3774,76.197 76.5,71.5C 81.9625,61.362 83.4625,50.6954 81,39.5C 79.7748,35.3854 78.2748,31.3854 76.5,27.5C 76.7867,25.5567 77.7867,24.2233 79.5,23.5 Z"/></g>
<g><path style="opacity:0.821" fill="#fefffe" d="M 68.5,34.5 C 70.288,34.2148 71.9547,34.5481 73.5,35.5C 78.8333,44.8333 78.8333,54.1667 73.5,63.5C 69.8762,65.3962 67.8762,64.3962 67.5,60.5C 70.1667,53.1667 70.1667,45.8333 67.5,38.5C 67.6233,37.0755 67.9566,35.7421 68.5,34.5 Z"/></g>
</svg>
